# xmcd
#
# Track frame offsets:
#	150
#	15628
#	32834
#	48618
#	64653
#	77498
#	94945
#	113623
#	130553
#	147943
#	166211
#	183337
#	202737
#	216904
#	232196
#	251689
#	265535
#	281342
#	299171
#	317941
#
# Disc length: 4402 seconds
#
# Revision: 1
# Processed by: cddbd v1.5.2PL0 Copyright (c) Steve Scherf et al.
# Submitted via: audiograbber 1.83.01
#
DISCID=21113014
DTITLE=Billy Ray Cyrus - The Definitive Collection CD1
DYEAR=2014
DGENRE=Country
TTITLE0=Achy Breaky Heart
TTITLE1=Could've Been Me
TTITLE2=She's Not Cryin' Anymore
TTITLE3=Wher'm I Gonna Live
TTITLE4=These Boots Are Made For Walkin'
TTITLE5=Someday, Somewhere, Somehow
TTITLE6=Some Gave All
TTITLE7=Never Thought I'd Fall In Love With You
TTITLE8=It Won't Be The Last
TTITLE9=In The Heart Of A Woman
TTITLE10=Somebody New
TTITLE11=Dreamin' In Color, Livin' In Black And White
TTITLE12=Words By Heart
TTITLE13=Only Time Will Tell
TTITLE14=Talk Some
TTITLE15=When I'm Gone
TTITLE16=Right Face Wrong Time
TTITLE17=Storm In The Heartland
TTITLE18=The Past
TTITLE19=A Heart With Your Name On It
EXTD=
EXTT0=
EXTT1=
EXTT2=
EXTT3=
EXTT4=
EXTT5=
EXTT6=
EXTT7=
EXTT8=
EXTT9=
EXTT10=
EXTT11=
EXTT12=
EXTT13=
EXTT14=
EXTT15=
EXTT16=
EXTT17=
EXTT18=
EXTT19=
PLAYORDER=
